<svg width="25" height="25" viewBox="0 0 25 25" fill="none" xmlns="http://www.w3.org/2000/svg">
<path d="M17.287 2.64355H7.28699C4.52556 2.64355 2.28699 4.88213 2.28699 7.64355V17.6436C2.28699 20.405 4.52556 22.6436 7.28699 22.6436H17.287C20.0484 22.6436 22.287 20.405 22.287 17.6436V7.64355C22.287 4.88213 20.0484 2.64355 17.287 2.64355Z" stroke="#111111" stroke-width="1.5" stroke-linecap="round" stroke-linejoin="round"/>
<path d="M16.287 12.0136C16.4104 12.8459 16.2683 13.6958 15.8808 14.4426C15.4933 15.1894 14.8801 15.795 14.1286 16.1733C13.3771 16.5515 12.5254 16.6832 11.6948 16.5495C10.8641 16.4159 10.0968 16.0237 9.50184 15.4288C8.90692 14.8339 8.51473 14.0665 8.38107 13.2358C8.2474 12.4052 8.37906 11.5535 8.75733 10.802C9.13559 10.0505 9.74119 9.43735 10.488 9.04985C11.2348 8.66235 12.0848 8.5202 12.917 8.64361C13.7659 8.7695 14.5519 9.16508 15.1587 9.77192C15.7655 10.3788 16.1611 11.1647 16.287 12.0136Z" stroke="#111111" stroke-width="1.5" stroke-linecap="round" stroke-linejoin="round"/>
<path d="M16.287 12.0136C16.4104 12.8459 16.2683 13.6958 15.8808 14.4426C15.4933 15.1894 14.8801 15.795 14.1286 16.1733C13.3771 16.5515 12.5254 16.6832 11.6948 16.5495C10.8641 16.4159 10.0968 16.0237 9.50184 15.4288C8.90692 14.8339 8.51473 14.0665 8.38107 13.2358C8.2474 12.4052 8.37906 11.5535 8.75733 10.802C9.13559 10.0505 9.74119 9.43735 10.488 9.04985C11.2348 8.66235 12.0848 8.5202 12.917 8.64361C13.7659 8.7695 14.5519 9.16508 15.1587 9.77192C15.7655 10.3788 16.1611 11.1647 16.287 12.0136Z" stroke="#111111" stroke-width="1.5" stroke-linecap="round" stroke-linejoin="round"/>
<path d="M17.787 7.14355H17.797" stroke="#111111" stroke-width="1.5" stroke-linecap="round" stroke-linejoin="round"/>
<path d="M17.787 7.14355H17.797" stroke="#111111" stroke-width="1.5" stroke-linecap="round" stroke-linejoin="round"/>
</svg>
