<svg width="25" height="25" viewBox="0 0 25 25" fill="none" xmlns="http://www.w3.org/2000/svg">
<g clip-path="url(#clip0_1_92)">
<path d="M23.287 3.6436C22.3294 4.31908 21.2691 4.83571 20.147 5.1736C19.5447 4.48111 18.7443 3.99029 17.854 3.76753C16.9637 3.54476 16.0265 3.6008 15.1691 3.92805C14.3117 4.25531 13.5754 4.838 13.06 5.59732C12.5445 6.35663 12.2747 7.25594 12.287 8.1736V9.1736C10.5296 9.21917 8.78826 8.82941 7.218 8.03905C5.64773 7.24868 3.7973 5.36669 2.78699 3.92805C2.78699 3.92805 -0.713013 13.6436 8.28699 17.6436C6.22751 19.0416 3.77414 19.7425 1.28699 19.6436C10.287 24.6436 21.287 19.6436 21.287 8.1436C21.2861 7.86505 21.2593 7.5872 21.207 7.3136C22.2276 6.30709 22.9478 5.03631 23.287 3.6436Z" stroke="#111111" stroke-width="1.5" stroke-linecap="round" stroke-linejoin="round"/>
</g>
<defs>
<clipPath id="clip0_1_92">
<rect width="24" height="24" fill="white" transform="translate(0.286987 0.643555)"/>
</clipPath>
</defs>
</svg>
